<svg xmlns="http://www.w3.org/2000/svg" width="640" height="480" viewBox="0 0 640 480" version="1.1"><path d="M 498 208.500 L 498 330 338.400 330 L 178.801 330 162.900 339.560 L 147 349.120 147 396.194 C 147 428.573, 147.356 444.457, 148.141 447.078 C 149.661 452.148, 154.247 457.552, 159.347 460.279 L 163.500 462.500 346.500 462.500 L 529.500 462.500 529.753 274.750 L 530.005 87 514.003 87 L 498 87 498 208.500 M 276 360.552 C 275.175 360.725, 272.877 361.130, 270.894 361.452 C 265.372 362.347, 258.447 367.444, 256.064 372.367 C 252.934 378.833, 253.072 379, 261.521 379 C 268.481 379, 269.124 378.822, 270.132 376.610 C 271.402 373.823, 274.898 372, 278.974 372 C 282.967 372, 286.368 376.371, 285.575 380.484 C 284.719 384.927, 281.637 387, 275.889 387 L 271 387 271 392.500 L 271 398 275.250 398.002 C 281.537 398.004, 286.298 400.745, 287.115 404.834 C 288.145 409.987, 286.815 413.264, 282.810 415.444 C 279.638 417.171, 278.768 417.247, 275.035 416.129 C 272.191 415.277, 270.293 413.923, 269.166 411.941 C 267.565 409.127, 267.217 409.012, 260.250 409.006 C 255.929 409.003, 253 409.417, 253 410.032 C 253 412.105, 256.153 418.535, 258.298 420.834 C 263.086 425.967, 267.732 427.500, 278.500 427.500 C 287.845 427.500, 288.859 427.296, 293.975 424.394 C 306.843 417.096, 307.713 400.335, 295.548 394.072 L 290.833 391.644 293.666 390.200 C 300.583 386.677, 302.753 382.418, 301.478 374.873 C 300.560 369.435, 294.926 363.760, 288.930 362.232 C 283.492 360.846, 278.001 360.133, 276 360.552 M 331.461 361.091 C 323.154 362.145, 317.549 366.143, 313.364 374 C 311.750 377.031, 311.500 379.843, 311.500 395 C 311.500 411.610, 311.621 412.712, 313.884 416.661 C 318.189 424.174, 325.802 428, 336.448 428 C 352.186 428, 362.098 419.018, 361.956 404.884 C 361.904 399.710, 359.927 393.682, 357.345 390.827 C 351.762 384.654, 339.968 382.721, 332.303 386.722 C 328.146 388.892, 328.101 388.894, 327.473 386.914 C 326.557 384.030, 327.894 377.353, 329.877 374.904 C 332.478 371.691, 339.719 371.188, 343.250 373.975 C 344.762 375.169, 346 376.787, 346 377.573 C 346 378.673, 347.603 379, 353 379 C 359.836 379, 360 378.940, 360 376.450 C 360 371.752, 355.768 365.934, 350.303 363.118 C 347.018 361.426, 337.170 360.366, 331.461 361.091 M 383.500 362.871 C 378.394 365.203, 373.401 370.332, 371.772 374.917 C 370.936 377.272, 370.505 384.154, 370.514 395 C 370.526 409.120, 370.795 412.005, 372.381 415 C 376.790 423.329, 383.012 427.091, 393.500 427.769 C 406.110 428.584, 413.736 424.980, 418.250 416.070 C 420.897 410.844, 421 410.064, 421 395.187 C 421 385.899, 420.512 378.104, 419.777 375.651 C 418.144 370.199, 411.581 363.506, 406.500 362.110 C 400.134 360.361, 388.125 360.758, 383.500 362.871 M 391.235 373.037 C 387.678 374.466, 387 378, 387 395.111 C 387 410.744, 387.053 411.144, 389.455 413.545 C 392.593 416.684, 399.052 416.948, 401.944 414.056 C 404.699 411.301, 405.202 407.294, 404.829 391.085 C 404.501 376.869, 404.491 376.814, 401.694 374.411 C 398.801 371.925, 395.185 371.450, 391.235 373.037 M 332 397.294 C 326.636 400.007, 325.641 409.725, 330.285 414.051 C 332.565 416.175, 338.831 416.696, 341.961 415.021 C 344.160 413.844, 346 408.963, 346 404.305 C 346 397.580, 338.681 393.915, 332 397.294" stroke="none" fill="#923b00" fill-rule="evenodd"/><path d="M 178.756 173.750 L 179.012 330 338.379 330 L 497.746 330 498.197 183.250 C 498.445 102.537, 498.273 35.099, 497.815 33.388 C 496.476 28.386, 491.524 22.432, 486.800 20.145 L 482.421 18.025 330.460 17.763 L 178.500 17.500 178.756 173.750 M 292 174 L 292 261 313.500 261 L 335 261 335 226 L 335 191 363.500 191 L 392 191 392 175.500 L 392 160 363.500 160 L 335 160 335 139.500 L 335 119 368.500 119 L 402 119 402 103 L 402 87 347 87 L 292 87 292 174" stroke="none" fill="#ff6b00" fill-rule="evenodd"/><path d="M 143.250 38.155 L 110 58.252 110 214.626 C 110 327.661, 110.305 371, 111.100 371 C 112.495 371, 143.027 352.675, 146.731 349.615 C 148.254 348.357, 156.137 343.369, 164.250 338.531 L 179 329.735 179 173.868 C 179 49.825, 178.745 18.006, 177.750 18.029 C 177.063 18.044, 161.537 27.101, 143.250 38.155 M 319.250 87.749 C 334.512 87.905, 359.487 87.905, 374.750 87.749 C 390.012 87.594, 377.525 87.467, 347 87.467 C 316.475 87.467, 303.987 87.594, 319.250 87.749 M 351.186 118.748 C 360.363 118.913, 375.663 118.913, 385.186 118.749 C 394.709 118.584, 387.200 118.449, 368.500 118.449 C 349.800 118.449, 342.009 118.583, 351.186 118.748 M 349.311 190.748 C 357.457 190.916, 370.507 190.916, 378.311 190.747 C 386.115 190.579, 379.450 190.441, 363.500 190.441 C 347.550 190.442, 341.165 190.580, 349.311 190.748 M 302.195 260.746 C 308.077 260.922, 317.977 260.923, 324.195 260.747 C 330.413 260.571, 325.600 260.427, 313.500 260.426 C 301.400 260.425, 296.313 260.569, 302.195 260.746 M 301.252 378.500 C 301.263 380.700, 301.468 381.482, 301.707 380.238 C 301.946 378.994, 301.937 377.194, 301.687 376.238 C 301.437 375.282, 301.241 376.300, 301.252 378.500 M 386.397 394 C 386.397 401.975, 386.553 405.238, 386.743 401.250 C 386.932 397.262, 386.932 390.738, 386.743 386.750 C 386.553 382.762, 386.397 386.025, 386.397 394 M 311.397 395 C 311.397 402.975, 311.553 406.238, 311.743 402.250 C 311.932 398.262, 311.932 391.738, 311.743 387.750 C 311.553 383.762, 311.397 387.025, 311.397 395 M 370.382 394.500 C 370.384 401.100, 370.546 403.670, 370.741 400.211 C 370.937 396.752, 370.936 391.352, 370.738 388.211 C 370.540 385.070, 370.380 387.900, 370.382 394.500" stroke="none" fill="#ff9447" fill-rule="evenodd"/><path d="M 292 174 L 292 260 313.500 260 L 335 260 335 225 L 335 190 363.527 190 L 392.053 190 391.777 175.250 L 391.500 160.500 363.250 160.234 L 335 159.969 335 138.984 L 335 118 368.500 118 L 402 118 402 103 L 402 88 347 88 L 292 88 292 174 M 268.558 362.492 C 261.515 365.001, 256.818 369.617, 255.067 375.750 L 254.140 379 261.570 379 C 266.072 379, 269 378.588, 269 377.955 C 269 377.380, 270.105 375.805, 271.455 374.455 C 273.252 372.657, 274.993 372, 277.955 372 C 283.039 372, 286 374.690, 286 379.309 C 286 384.622, 284.007 386.388, 277.345 386.980 L 271.500 387.500 271.198 392.750 L 270.895 398 276.525 398 C 281.413 398, 282.539 398.385, 285.077 400.923 C 294.077 409.923, 280.868 422.650, 271.077 414.411 C 269.385 412.987, 268 411.187, 268 410.411 C 268 409.355, 266.510 409, 262.082 409 C 253.549 409, 252.987 409.349, 254.355 413.806 C 256.818 421.831, 267.313 428, 278.500 428 C 290.005 428, 300.699 421.568, 302.918 413.312 C 305.313 404.403, 301.757 396.720, 293.757 393.519 L 289.506 391.819 293.503 389.884 C 299.323 387.066, 300.952 384.471, 300.978 377.973 C 301.001 372.312, 299.651 369.286, 295.531 365.764 C 290.438 361.409, 276.383 359.704, 268.558 362.492 M 325.611 362.942 C 319.530 365.393, 316.678 368.025, 314.050 373.616 C 312.235 377.479, 312.003 379.898, 312.022 394.739 C 312.040 408.834, 312.336 412.143, 313.880 415.541 C 320.021 429.062, 342.939 432.277, 355.068 421.320 C 361.502 415.507, 363.740 403.240, 359.779 395.500 C 354.728 385.629, 341.911 382.015, 331.530 387.535 L 326.763 390.070 327.187 383.400 C 327.554 377.639, 327.986 376.408, 330.362 374.365 C 332.361 372.646, 334.324 372, 337.556 372 C 341.914 372, 342.729 372.479, 346.789 377.428 C 347.705 378.544, 349.845 379, 354.164 379 L 360.250 379 359.623 375.865 C 357.805 366.777, 350.535 361.867, 338.071 361.310 C 332.269 361.051, 329.358 361.433, 325.611 362.942 M 386.994 361.934 C 379.344 364.261, 373.823 369.375, 372.044 375.781 C 370.587 381.027, 370.719 408.331, 372.226 413.360 C 375.062 422.826, 386.079 428.846, 398.442 427.684 C 406.142 426.961, 410.643 425.046, 414.804 420.725 C 419.625 415.718, 421 409.904, 421 394.523 C 421 373.988, 417.537 366.415, 406.414 362.625 C 401.497 360.950, 391.410 360.591, 386.994 361.934 M 390.656 373.133 C 387.174 375.157, 386 380.252, 386 393.343 C 386 412.976, 387.319 416, 395.884 416 C 403.865 416, 404.439 414.731, 404.822 396.255 C 405.177 379.170, 404.885 376.885, 401.975 373.975 C 399.786 371.786, 393.746 371.337, 390.656 373.133 M 330.134 398.060 C 326.806 400.089, 326.773 400.181, 327.208 406.205 C 327.751 413.706, 329.964 416, 336.656 416 C 343.210 416, 346 412.878, 346 405.545 C 346 401.333, 345.519 399.519, 344 398 C 341.311 395.311, 334.595 395.340, 330.134 398.060" stroke="none" fill="#ffffff" fill-rule="evenodd"/></svg>