<svg data-v-423bf9ae="" xmlns="http://www.w3.org/2000/svg" viewBox="0 0 283.4587934108575 163" class="iconAbove"><!----><!----><!----><g data-v-423bf9ae="" id="6e20b506-9e2c-485a-9178-fbcacc19f1c7" fill="#FFFFFF" transform="matrix(6.1037640351658435,0,0,6.1037640351658435,-1.5259389868031974,91.4028453668988)"><path d="M3.82 1.93L3.82 1.93L3.82 1.93Q5.87 1.93 6.41 3.21L6.41 3.21L6.41 3.21Q6.56 3.53 6.56 3.63L6.56 3.63L5.69 3.63L5.69 3.89L6.62 3.89L6.62 3.88L6.62 3.88Q6.62 3.81 6.56 3.63L6.56 3.63L8.13 3.63L8.13 3.89L6.64 3.89L6.64 3.91L6.64 3.91Q6.75 4.46 6.80 5.09L6.80 5.09L6.80 5.09Q6.80 5.13 5.00 5.22L5.00 5.22L5.00 5.21L5.00 5.21Q5.00 3.58 3.88 3.58L3.88 3.58L3.69 3.58L3.69 3.58Q2.85 3.58 2.67 4.29L2.67 4.29L2.67 4.29Q2.52 4.89 2.52 5.87L2.52 5.87L2.52 7.20L2.50 7.40L1.88 7.40L1.88 7.71L2.50 7.71L2.50 10.08L5.14 10.08L5.14 7.62L6.65 7.62L6.65 10.08L5.81 10.08L5.81 11.60L4.05 11.60L4.05 11.73L2.69 11.73L2.69 11.60L1.30 11.60L1.30 10.84L2.22 10.84L2.22 10.51L0.84 10.51L0.84 9.39L0.25 9.39L0.25 8.01L0.56 8.01L0.56 8.01Q0.54 7.15 0.54 6.66L0.54 6.66L0.54 6.66Q0.54 4.42 0.76 3.84L0.76 3.84L0.76 3.84Q0.96 3.17 1.42 2.69L1.42 2.69L1.42 2.69Q2.23 1.93 3.82 1.93ZM2.63 9.59L2.63 9.59L2.71 9.59L2.71 9.93L2.91 9.93L2.91 10.04L2.63 10.04L2.63 10.04Q2.60 10.04 2.60 10.00L2.60 10.00L2.60 9.63L2.60 9.63Q2.60 9.59 2.63 9.59ZM4.69 9.60L4.69 9.59L4.79 9.59L4.79 9.59Q4.87 9.66 4.87 9.72L4.87 9.72L4.87 9.72Q4.89 9.72 4.99 9.59L4.99 9.59L5.07 9.59L5.07 9.63L5.07 9.63Q4.96 9.78 4.96 9.84L4.96 9.84L4.96 9.84Q4.98 9.84 5.09 10.01L5.09 10.01L5.09 10.04L4.99 10.04L4.87 9.91L4.87 9.91Q4.81 10.02 4.78 10.04L4.78 10.04L4.68 10.04L4.68 10.04Q4.71 9.97 4.83 9.80L4.83 9.80L4.69 9.60ZM6.04 10.19L6.04 10.19L6.04 10.19Q6.21 10.23 6.21 10.28L6.21 10.28L6.21 10.35L6.14 10.35L6.08 10.28L6.01 10.28L6.01 10.28Q5.97 10.29 5.97 10.32L5.97 10.32L5.97 10.35L5.97 10.35Q6.23 10.40 6.23 10.46L6.23 10.46L6.23 10.51L6.23 10.51Q6.23 10.64 6.08 10.64L6.08 10.64L6.01 10.64L6.01 10.64Q5.92 10.64 5.87 10.55L5.87 10.55L5.87 10.48L5.96 10.48L5.96 10.48Q5.96 10.56 6.06 10.56L6.06 10.56L6.08 10.56L6.08 10.56Q6.10 10.56 6.13 10.51L6.13 10.51L6.13 10.51Q6.13 10.49 5.89 10.40L5.89 10.40L5.88 10.36L5.88 10.28L5.88 10.28Q5.88 10.23 6.04 10.19ZM7.89 6.80L7.89 2.00L12.68 2.00L12.68 3.60L12.68 3.60Q12.68 3.63 12.65 3.63L12.65 3.63L9.80 3.63L9.80 5.74L12.35 5.74L12.35 5.76L12.35 5.76Q12.35 5.84 12.33 6.79L12.33 6.79L12.33 6.79Q12.30 6.79 12.30 6.80L12.30 6.80L12.42 6.80L12.42 7.29L10.21 7.29L10.21 9.29L9.62 9.29L9.62 9.49L10.21 9.49L10.21 10.10L12.71 10.10L12.71 10.32L12.52 10.32L12.52 11.52L9.52 11.52L9.52 11.73L8.10 11.73L8.10 8.24L7.89 8.24L7.89 7.01L6.33 7.01L6.33 6.80L7.89 6.80ZM8.70 6.80L7.90 6.80L7.90 7.01L8.70 7.01L8.70 6.80ZM13.45 7.49L13.45 1.96L16.80 1.96L16.80 1.96Q18.48 1.96 18.98 3.14L18.98 3.14L18.98 3.14Q19.19 3.75 19.19 4.53L19.19 4.53L19.19 4.94L19.19 4.94Q19.19 6.36 18.57 7.11L18.57 7.11L17.86 7.11L17.86 7.47L18.94 7.47L18.94 9.81L18.30 9.81L18.30 10.17L19.27 10.17L19.27 11.55L17.23 11.55L17.23 9.34L16.45 9.34L16.45 7.92L15.08 7.92L15.08 10.34L15.37 10.34L15.37 11.73L13.49 11.73L13.49 11.73Q13.45 11.73 13.45 11.70L13.45 11.70L13.45 7.77L14.29 7.77L14.29 7.49L13.45 7.49ZM16.18 3.55L15.37 3.55L15.37 6.31L15.84 6.31L15.84 6.31Q16.88 6.31 17.05 6.11L17.05 6.11L17.05 6.11Q17.22 6.00 17.32 5.67L17.32 5.67L18.04 5.67L18.04 5.32L17.38 5.32L17.38 5.35L17.38 5.35Q17.33 5.67 17.30 5.67L17.30 5.67L16.37 5.67L16.37 5.32L17.35 5.32L17.35 5.32Q17.38 5.32 17.38 5.29L17.38 5.29L17.38 5.29Q17.40 4.87 17.40 4.81L17.40 4.81L17.40 4.81Q17.40 3.90 17.08 3.69L17.08 3.69L17.08 3.69Q16.84 3.55 16.18 3.55L16.18 3.55ZM23.33 1.93L23.33 1.93L23.33 1.93Q25.38 1.93 25.91 3.22L25.91 3.22L25.91 3.22Q26.07 3.53 26.07 3.63L26.07 3.63L25.20 3.63L25.20 3.89L26.13 3.89L26.13 3.88L26.13 3.88Q26.13 3.81 26.07 3.63L26.07 3.63L27.64 3.63L27.64 3.89L26.15 3.89L26.15 3.91L26.15 3.91Q26.26 4.46 26.31 5.09L26.31 5.09L26.31 5.09Q26.31 5.13 24.51 5.22L24.51 5.22L24.51 5.21L24.51 5.21Q24.51 3.58 23.40 3.58L23.40 3.58L23.19 3.58L23.19 3.58Q22.36 3.58 22.18 4.29L22.18 4.29L22.18 4.29Q22.03 4.89 22.03 5.87L22.03 5.87L22.03 7.21L22.01 7.40L21.38 7.40L21.38 7.71L22.01 7.71L22.01 10.08L24.64 10.08L24.64 7.62L26.16 7.62L26.16 10.08L25.32 10.08L25.32 11.60L23.56 11.60L23.56 11.73L22.20 11.73L22.20 11.60L20.81 11.60L20.81 10.84L21.73 10.84L21.73 10.51L20.34 10.51L20.34 9.39L19.76 9.39L19.76 8.00L20.07 8.00L20.07 8.00Q20.05 7.16 20.05 6.66L20.05 6.66L20.05 6.66Q20.05 4.42 20.26 3.84L20.26 3.84L20.26 3.84Q20.47 3.17 20.92 2.69L20.92 2.69L20.92 2.69Q21.73 1.93 23.33 1.93ZM30.43 1.95L30.43 1.95L30.43 1.95Q32.54 1.95 33.20 3.42L33.20 3.42L33.20 3.42Q33.58 4.14 33.58 6.19L33.58 6.19L33.58 6.23L32.85 6.23L32.85 6.56L33.58 6.56L33.58 10.10L33.10 10.10L33.10 11.37L32.15 11.37L32.15 11.73L28.83 11.73L28.83 11.37L28.42 11.37L28.42 10.10L27.57 10.10L27.57 9.10L28.08 9.10L28.08 8.57L27.57 8.57L27.57 9.10L26.36 9.10L26.36 8.57L27.28 8.57L27.28 8.57Q27.26 7.38 27.26 6.74L27.26 6.74L27.26 5.91L27.26 5.91Q27.26 3.58 28.05 2.80L28.05 2.80L28.05 2.80Q28.77 1.95 30.43 1.95ZM29.24 5.32L29.24 5.32L29.26 5.32L29.24 5.35L29.24 6.23L28.51 6.23L28.51 6.56L29.24 6.56L29.24 6.56Q29.22 8.67 29.22 9.75L29.22 9.75L29.22 10.10L30.86 10.10L30.86 9.56L31.61 9.56L31.61 9.54L31.61 9.54Q31.61 8.54 31.60 6.75L31.60 6.75L31.60 6.75Q31.60 6.68 31.61 6.38L31.61 6.38L31.61 6.38Q31.61 4.45 31.38 4.01L31.38 4.01L31.38 4.01Q31.15 3.58 30.53 3.58L30.53 3.58L30.29 3.58L30.29 3.58Q29.54 3.58 29.37 4.24L29.37 4.24L29.37 4.24Q29.29 4.56 29.24 5.32ZM33.58 6.56L33.58 6.23L34.75 6.23L34.75 6.56L33.58 6.56ZM34.31 7.25L34.31 1.90L36.85 1.90L36.85 1.90Q39.07 1.90 39.69 3.05L39.69 3.05L39.69 3.05Q40.05 3.77 40.05 4.89L40.05 4.89L40.05 4.89Q40.03 5.10 40.03 5.30L40.03 5.30L41.44 5.30L41.44 5.78L39.98 5.78L39.98 5.76L39.98 5.76Q40.02 5.33 40.02 5.30L40.02 5.30L39.20 5.30L39.20 5.78L39.98 5.78L39.98 7.44L38.36 7.44L38.36 8.02L38.35 8.02L38.35 8.02Q36.48 8.03 36.22 8.03L36.22 8.03L36.22 8.90L35.88 8.90L35.88 10.44L36.07 10.44L36.07 11.73L34.54 11.73L34.54 11.12L34.32 11.12L34.32 10.62L34.32 10.62Q34.32 9.74 34.31 7.76L34.31 7.76L35.24 7.76L35.24 7.25L34.31 7.25ZM37.06 3.57L36.22 3.57L36.22 6.36L36.81 6.36L36.81 5.96L37.97 5.96L37.97 5.96Q38.20 5.75 38.20 4.76L38.20 4.76L38.20 4.76Q38.20 3.83 37.78 3.68L37.78 3.68L37.78 3.68Q37.62 3.57 37.06 3.57L37.06 3.57ZM41.86 6.80L41.86 2.00L46.66 2.00L46.66 3.60L46.66 3.60Q46.66 3.63 46.62 3.63L46.62 3.63L43.78 3.63L43.78 5.74L46.33 5.74L46.33 5.76L46.33 5.76Q46.33 5.84 46.30 6.79L46.30 6.79L46.30 6.79Q46.28 6.79 46.28 6.80L46.28 6.80L46.40 6.80L46.40 7.29L44.19 7.29L44.19 9.29L43.59 9.29L43.59 9.49L44.19 9.49L44.19 10.10L46.69 10.10L46.69 10.32L46.49 10.32L46.49 11.52L43.50 11.52L43.50 11.73L42.08 11.73L42.08 8.24L41.86 8.24L41.86 7.01L40.30 7.01L40.30 6.80L41.86 6.80ZM42.68 6.80L41.88 6.80L41.88 7.01L42.68 7.01L42.68 6.80Z"></path></g><!----><g data-v-423bf9ae="" id="d18fb77a-5e92-494b-81d2-48b77681590d" transform="matrix(2.6117238070546884,0,0,2.6117238070546884,73.86518528903903,-22.134818525658233)" stroke="none" fill="#81E291"><path d="M25.94 21.58h.12v8.84h-.12z"></path><path d="M21.58 25.94h8.84v.12h-8.84zM14.11 16.527l2.412-2.412.085.085-2.411 2.412zM20.47 11.96l-.03-.11 3.3-.89.03.12-3.3.88zM31.53 11.96l-3.3-.88.03-.12 3.3.89-.03.11zM35.388 14.196l.085-.085 2.411 2.411-.085.085zM40.92 23.77l-.88-3.3.11-.03.88 3.3-.11.03zM40.15 31.56l-.11-.03.88-3.3.11.03-.88 3.3zM35.385 37.807l2.411-2.412.085.085-2.41 2.412zM28.26 41.03l-.03-.11 3.3-.88.03.11-3.3.88zM23.74 41.03l-3.3-.88.03-.11 3.3.88-.03.11zM14.108 35.47l.085-.084 2.411 2.41-.085.086zM11.85 31.56l-.89-3.3.12-.03.88 3.3-.11.03zM11.08 23.77l-.12-.03.89-3.3.11.03-.88 3.3zM17.84 24.32l-3.41-4.05.09-.08 3.41 4.06-.09.07zM34.16 24.32l-.09-.08 3.41-4.05.09.08-3.41 4.05zM25.94 13.27h.12v3.82h-.12zM24.24 17.93l-4.05-3.41.08-.09 4.05 3.41-.08.09zM27.76 17.93l-.08-.09 4.05-3.41.08.09-4.05 3.41zM34.91 25.94h3.83v.12h-3.83zM37.48 31.81l-3.41-4.05.09-.08 3.41 4.05-.09.08zM31.73 37.57l-4.05-3.41.08-.09 4.05 3.41-.08.09zM25.94 34.91h.12v3.82h-.12zM20.133 37.4l4.039-3.43.078.09-4.04 3.432zM14.52 31.81l-.09-.08 3.41-4.05.09.07-3.41 4.06zM13.27 25.94h3.82v.12h-3.82z"></path><g><circle cx="26" cy="11.02" r="2.25"></circle><circle cx="18.51" cy="13.03" r="2.25" transform="matrix(.87 -.5 .5 .87 -4.03 11)"></circle><circle cx="13.03" cy="18.51" r="2.25" transform="rotate(-60 13.028 18.515)"></circle><circle cx="11.02" cy="26" r="2.25"></circle><circle cx="13.03" cy="33.49" r="2.25" transform="rotate(-30 13.026 33.49)"></circle><circle cx="18.51" cy="38.97" r="2.25" transform="rotate(-60 18.516 38.969)"></circle><circle cx="26" cy="40.98" r="2.25"></circle><circle cx="33.49" cy="38.97" r="2.25" transform="rotate(-30 33.497 38.975)"></circle><circle cx="38.97" cy="33.49" r="2.25" transform="rotate(-60 38.966 33.49)"></circle><circle cx="40.98" cy="26" r="2.25"></circle><circle cx="38.97" cy="18.51" r="2.25" transform="matrix(.87 -.5 .5 .87 -4.03 21.97)"></circle><circle cx="33.49" cy="13.03" r="2.25" transform="rotate(-60 33.491 13.032)"></circle><circle cx="26" cy="19.34" r="2.25"></circle><circle cx="26" cy="32.66" r="2.25"></circle><circle cx="19.33" cy="26" r="2.25"></circle><circle cx="32.67" cy="26" r="2.25"></circle></g></g><!----></svg>