<svg xmlns="http://www.w3.org/2000/svg" width="761" height="316" viewBox="0 0 761 316" version="1.1"><path d="M 124.056 23.421 C 122.161 24.840, 120.258 26, 119.825 26 C 119.393 26, 116.577 27.575, 113.567 29.500 C 110.558 31.425, 107.818 33, 107.478 33 C 107.138 33, 104.898 34.350, 102.500 36 C 100.102 37.650, 97.810 39, 97.407 39 C 97.005 39, 94.431 40.440, 91.689 42.199 C 85.817 45.968, 81.743 48.295, 77.178 50.490 C 75.350 51.369, 71.750 53.533, 69.178 55.301 C 66.605 57.068, 62.925 59.329, 61 60.325 C 55.934 62.947, 52.193 65.084, 46.235 68.755 C 43.339 70.540, 40.720 72, 40.415 72 C 40.110 72, 37.898 73.350, 35.500 75 C 33.102 76.650, 30.862 78, 30.522 78 C 30.182 78, 27.563 79.490, 24.702 81.311 C 21.841 83.132, 18.712 84.918, 17.750 85.279 C 16.107 85.897, 16 90.084, 16 153.749 L 16 221.562 18.750 222.818 C 21.850 224.234, 23.444 225.146, 37.491 233.534 C 42.986 236.815, 48.161 239.841, 48.991 240.258 C 49.821 240.674, 52.300 242.130, 54.500 243.492 C 56.700 244.854, 61.814 247.888, 65.863 250.234 C 69.913 252.580, 74.863 255.484, 76.863 256.688 C 83.773 260.844, 87.516 262.937, 91.750 265.011 C 94.087 266.157, 96 267.424, 96 267.828 C 96 268.231, 97.238 269.123, 98.750 269.809 C 100.263 270.495, 103.750 272.368, 106.500 273.971 C 109.250 275.574, 112.625 277.455, 114 278.153 C 115.375 278.850, 119.119 281.126, 122.321 283.210 C 128.124 286.989, 134.299 288.240, 136.550 286.094 C 137.072 285.596, 139.300 284.170, 141.500 282.924 C 150.635 277.753, 157.142 273.957, 164.500 269.505 C 166.700 268.174, 170.300 266.139, 172.500 264.982 C 177.735 262.229, 180.112 260.865, 195 252.075 C 201.875 248.016, 209.525 243.517, 212 242.078 C 214.475 240.638, 217.400 238.912, 218.500 238.241 C 219.600 237.570, 222.075 236.099, 224 234.973 C 225.925 233.847, 229.300 231.833, 231.500 230.498 C 233.700 229.163, 237.075 227.335, 239 226.436 C 244.544 223.846, 246 222.074, 246 217.916 C 246 214.550, 245.505 213.808, 241.421 211.051 C 238.902 209.351, 235.414 207.286, 233.671 206.463 C 229.623 204.550, 225.979 202.430, 218.695 197.750 C 215.485 195.688, 212.545 194, 212.161 194 C 211.778 194, 209.809 192.875, 207.785 191.500 C 205.762 190.125, 203.555 189, 202.882 189 C 202.208 189, 200.947 188.392, 200.079 187.649 C 195.536 183.763, 175.325 181.312, 169.986 184 C 159.984 189.035, 156.660 191.039, 153.745 193.786 C 150.404 196.936, 141.411 214.949, 140.409 220.500 C 140.011 222.700, 139.139 225.850, 138.471 227.500 C 137.803 229.150, 136.696 233.543, 136.012 237.262 C 135.328 240.982, 134.371 244.271, 133.884 244.571 C 133.398 244.872, 132.993 246.554, 132.985 248.309 C 132.976 250.064, 132.550 252.162, 132.038 252.972 C 130.860 254.836, 130.644 254.202, 128.986 244 C 128.316 239.875, 127.410 236.050, 126.973 235.500 C 126.536 234.950, 125.876 232.700, 125.505 230.500 C 123.738 220.007, 118.076 205.933, 111.627 196 C 108.100 190.569, 94.039 176, 92.323 176 C 91.650 176, 90.740 175.438, 90.300 174.750 C 89.423 173.380, 87.555 172.231, 78.388 167.424 C 75.026 165.662, 70.751 163.912, 68.888 163.535 C 67.025 163.159, 64.150 162.248, 62.500 161.512 C 60.850 160.775, 57.357 159.857, 54.738 159.471 C 52.118 159.085, 49.754 158.412, 49.484 157.975 C 49.214 157.538, 45.832 156.616, 41.968 155.925 C 38.105 155.235, 35.096 154.212, 35.283 153.652 C 35.469 153.092, 38.070 152.078, 41.061 151.398 C 44.052 150.718, 49.650 149.448, 53.500 148.576 C 57.350 147.704, 61.400 146.562, 62.500 146.037 C 63.600 145.513, 66.349 144.614, 68.609 144.041 C 80.835 140.940, 102.994 125.450, 108.349 116.262 C 108.982 115.175, 110.830 112.309, 112.455 109.893 C 114.079 107.477, 116.234 103.925, 117.243 102 C 119.651 97.406, 124.654 82.572, 125.506 77.500 C 125.876 75.300, 126.536 73.050, 126.973 72.500 C 127.410 71.950, 128.316 68.125, 128.986 64 C 130.644 53.798, 130.860 53.164, 132.038 55.028 C 132.550 55.838, 132.976 57.936, 132.985 59.691 C 132.993 61.446, 133.398 63.128, 133.884 63.429 C 134.371 63.729, 135.328 67.018, 136.012 70.738 C 136.696 74.457, 137.803 78.850, 138.471 80.500 C 139.139 82.150, 140.016 85.300, 140.418 87.500 C 141.738 94.709, 148.961 108.116, 154.425 113.500 C 162.230 121.190, 168.354 123.817, 180.554 124.710 C 188.343 125.280, 199.376 121.615, 210.500 114.761 C 218.130 110.061, 225.281 105.865, 230 103.321 C 233.025 101.690, 237.863 98.887, 240.750 97.092 C 245.723 94, 246 93.609, 246 89.655 C 246 85.165, 246.002 85.167, 237.079 80.242 C 234.560 78.851, 231.375 76.969, 230 76.058 C 228.625 75.148, 226.375 73.840, 225 73.153 C 223.625 72.466, 220.700 70.817, 218.500 69.489 C 216.300 68.161, 212.700 66.097, 210.500 64.903 C 208.300 63.709, 206.275 62.454, 206 62.116 C 205.725 61.777, 203.925 60.690, 202 59.700 C 200.075 58.710, 196.848 56.910, 194.829 55.700 C 189.006 52.210, 174.921 44.009, 170 41.243 C 167.525 39.852, 164.375 37.969, 163 37.058 C 161.625 36.148, 159.375 34.840, 158 34.153 C 156.625 33.466, 153.700 31.801, 151.500 30.455 C 149.300 29.108, 145.623 27.099, 143.329 25.991 C 141.036 24.883, 138.988 23.464, 138.779 22.837 C 138.570 22.210, 135.947 21.505, 132.950 21.270 C 128.268 20.903, 127.014 21.206, 124.056 23.421 M 117.500 40.124 C 115.300 41.752, 111.700 43.993, 109.500 45.103 C 104.329 47.713, 100.721 49.758, 94.235 53.755 C 91.339 55.540, 88.720 57, 88.415 57 C 88.110 57, 85.898 58.350, 83.500 60 C 81.102 61.650, 78.890 63, 78.585 63 C 78.280 63, 75.661 64.460, 72.765 66.245 C 69.869 68.029, 66.281 70.167, 64.791 70.995 C 63.301 71.823, 58.664 74.525, 54.486 77 C 42.859 83.888, 37.782 86.774, 34.500 88.365 C 32.850 89.164, 30.262 90.792, 28.750 91.982 L 26 94.145 26 118.406 C 26 131.749, 26.243 142.909, 26.539 143.206 C 27.181 143.848, 41.635 141.318, 44.500 140.062 C 45.600 139.580, 48.750 138.652, 51.500 138 C 54.250 137.348, 57.400 136.427, 58.500 135.952 C 59.600 135.478, 62.750 134.452, 65.500 133.671 C 74.244 131.189, 84.919 124.122, 94.456 114.500 C 102.051 106.839, 106.010 100.545, 112.073 86.500 C 113.259 83.752, 116.887 69.979, 118.658 61.500 C 119.462 57.650, 120.531 53.600, 121.033 52.500 C 122.590 49.093, 123.803 36.989, 122.579 37.082 C 121.986 37.127, 119.700 38.496, 117.500 40.124 M 139 37.514 C 139 37.796, 139.437 38.809, 139.972 39.764 C 140.507 40.719, 141.640 45.775, 142.490 51 C 143.828 59.230, 147.497 74.374, 149.272 79 C 149.589 79.825, 150.367 82.300, 151.002 84.500 C 154.721 97.395, 165.197 110.573, 173.576 112.899 C 183.275 115.592, 193.837 112.911, 205.154 104.883 C 206.614 103.847, 208.189 102.999, 208.654 102.999 C 209.119 102.998, 212.016 101.251, 215.090 99.117 C 218.165 96.982, 221.540 94.959, 222.590 94.620 C 223.641 94.281, 225.850 92.920, 227.500 91.595 L 230.500 89.187 227.500 87.864 C 225.850 87.136, 224.275 86.257, 224 85.910 C 223.725 85.563, 221.965 84.429, 220.089 83.390 C 218.212 82.350, 214.612 80.293, 212.089 78.817 C 209.565 77.341, 206.375 75.552, 205 74.840 C 203.625 74.128, 200.025 71.976, 197 70.058 C 193.975 68.141, 190.150 65.859, 188.500 64.987 C 184.327 62.784, 180.594 60.594, 179.999 60 C 179.479 59.480, 174.676 56.811, 169.500 54.165 C 167.850 53.321, 164.475 51.248, 162 49.559 C 159.525 47.869, 155.925 45.696, 154 44.729 C 152.075 43.763, 148.034 41.628, 145.020 39.986 C 139.161 36.794, 139 36.728, 139 37.514 M 106.386 73.265 C 101.052 76.380, 96.177 79.270, 92.500 81.495 C 90.300 82.826, 86.700 84.853, 84.500 86 C 82.300 87.147, 78.857 89.079, 76.848 90.293 C 74.840 91.507, 70.115 94.260, 66.348 96.410 C 62.582 98.561, 57.138 101.817, 54.250 103.648 L 49 106.975 49 119.488 L 49 132 51.750 131.986 C 58.700 131.952, 59 131.556, 59 122.434 C 59 114.160, 59.024 114.084, 62.344 111.551 C 64.184 110.148, 66.096 108.998, 66.594 108.996 C 67.092 108.993, 69.525 107.623, 72 105.950 C 74.475 104.278, 77.850 102.235, 79.500 101.410 C 81.150 100.586, 84.750 98.607, 87.500 97.013 C 90.250 95.419, 93.625 93.537, 95 92.830 C 99.920 90.302, 107.529 85.207, 109.128 83.370 C 110.023 82.341, 111.063 79.362, 111.439 76.750 C 112.039 72.577, 111.902 72.002, 110.311 72.015 C 109.315 72.023, 107.549 72.585, 106.386 73.265 M 151 73.441 C 151 74.234, 151.411 75.136, 151.913 75.446 C 152.415 75.757, 153.123 77.768, 153.486 79.916 C 154.341 84.980, 154.872 85.439, 167.500 92.021 C 169.700 93.168, 173.525 95.415, 176 97.016 C 178.475 98.616, 181.908 100.571, 183.628 101.361 C 185.348 102.150, 187.062 103.292, 187.437 103.898 C 188.446 105.531, 195.222 105.233, 197.777 103.443 C 201.705 100.693, 200.551 98.481, 192.750 93.799 C 188.762 91.406, 183.250 88.335, 180.500 86.974 C 177.750 85.613, 175.244 84.156, 174.932 83.735 C 174.407 83.029, 171.156 81.179, 163.500 77.231 C 161.850 76.380, 159.306 74.855, 157.846 73.842 C 154.676 71.643, 151 71.427, 151 73.441 M 724.003 75.492 C 723.451 76.943, 723 78.590, 723 79.152 C 723 81.450, 710.287 93.279, 705.261 95.656 C 702.367 97.025, 700 98.736, 700 99.458 C 700 100.970, 704.243 104, 706.361 104 C 707.148 104, 711.160 107.580, 715.277 111.956 C 720.639 117.656, 722.949 120.917, 723.426 123.456 C 724.393 128.614, 727.275 128.252, 729.055 122.750 C 730.912 117.009, 740.027 107.519, 746.726 104.350 C 750.404 102.610, 752 101.272, 752 99.927 C 752 98.867, 751.316 98, 750.480 98 C 745.593 98, 732.112 84.838, 729.756 77.767 C 728.067 72.697, 725.458 71.666, 724.003 75.492 M 252.123 128.513 L 249 132.070 249 150.381 C 249 176.970, 249.781 178.060, 268.715 177.901 C 275.197 177.847, 282.975 177.509, 286 177.151 L 291.500 176.500 291.500 171 L 291.500 165.500 279.542 165.216 C 263.723 164.841, 264 165.103, 264 150.500 C 264 135.897, 263.723 136.159, 279.542 135.784 L 291.500 135.500 291.500 130.500 L 291.500 125.500 273.373 125.228 L 255.246 124.956 252.123 128.513 M 307.458 126.248 C 307.187 126.956, 307.085 138.778, 307.232 152.518 L 307.500 177.500 327.928 177.771 C 343.602 177.979, 348.543 177.747, 349.163 176.771 C 349.606 176.072, 349.976 173.601, 349.985 171.279 L 350 167.058 336.750 166.779 L 323.500 166.500 323.500 162 L 323.500 157.500 333.250 157.214 L 343 156.928 343 151.500 L 343 146.072 333.250 145.786 L 323.500 145.500 323.500 141 L 323.500 136.500 336.801 136.221 L 350.102 135.941 349.801 130.721 L 349.500 125.500 328.726 125.230 C 312.503 125.018, 307.845 125.241, 307.458 126.248 M 364.233 151.250 L 364.500 177.500 371.707 177.793 L 378.914 178.086 379.207 170.293 L 379.500 162.500 383.897 162.500 L 388.293 162.500 392.250 170.250 L 396.207 178 403.635 178 C 409.102 178, 411.205 177.628, 411.604 176.591 C 411.901 175.816, 410.566 172.259, 408.637 168.687 L 405.131 162.192 407.168 160.348 C 411.123 156.769, 412 153.545, 412 142.584 C 412 132.249, 411.947 132.009, 408.896 128.535 L 405.793 125 384.880 125 L 363.967 125 364.233 151.250 M 431.750 126.068 C 427.649 128.485, 427 132.014, 427 151.902 L 427 170.904 430.750 174.571 L 434.500 178.239 450.729 177.760 C 469.549 177.204, 470.243 176.925, 469.798 170.088 L 469.500 165.500 456.565 165.219 C 449.119 165.057, 443.072 164.474, 442.315 163.846 C 441.372 163.063, 441 159.589, 441 151.552 C 441 136.337, 441.173 136.171, 457.529 135.784 L 469.500 135.500 469.500 130.500 L 469.500 125.500 451.500 125.268 C 440.497 125.126, 432.820 125.437, 431.750 126.068 M 486.766 127.918 L 483.500 130.835 483.500 151.031 L 483.500 171.227 487.417 174.614 L 491.333 178 508.202 178 C 532.845 178, 533 177.831, 533 150.982 C 533 124.912, 533.085 125, 507.793 125 L 490.032 125 486.766 127.918 M 549 151.544 L 549 178.088 556.250 177.794 L 563.500 177.500 564 171 L 564.500 164.500 575.500 164.228 C 594.222 163.765, 596 162.038, 596 144.312 L 596 132.070 592.896 128.535 L 589.793 125 569.396 125 L 549 125 549 151.544 M 612.233 151.250 L 612.500 177.500 633.250 177.770 L 654 178.041 654 172.520 L 654 167 641.019 167 C 628.154 167, 628.033 166.979, 627.436 164.602 C 627.105 163.283, 626.984 161.145, 627.167 159.852 C 627.490 157.570, 627.820 157.492, 638.250 157.216 L 649 156.932 649 151.500 L 649 146.068 638.250 145.784 L 627.500 145.500 627.500 141 L 627.500 136.500 640.750 136.221 L 654 135.942 654 130.471 L 654 125 632.983 125 L 611.967 125 612.233 151.250 M 670.423 128.377 C 667.100 131.700, 667 132.032, 667 139.746 C 667 147.835, 668.386 152.416, 671.654 155.128 C 672.715 156.008, 677.412 156.643, 685.383 156.983 L 697.500 157.500 697.812 160.201 C 697.983 161.686, 697.630 163.823, 697.026 164.951 C 696.004 166.861, 695.014 167, 682.465 167 L 669 167 669 171.525 C 669 177.594, 670.307 178, 689.843 178 C 702.762 178, 705.995 177.707, 708.027 176.354 C 712.607 173.305, 713 172.111, 713 161.263 C 713 151.603, 712.835 150.745, 710.545 148.455 C 708.240 146.149, 707.430 146, 697.200 146 C 687.920 146, 686.065 145.730, 684.655 144.171 C 682.668 141.975, 682.506 138.655, 684.312 137.156 C 685.049 136.544, 690.860 135.942, 697.562 135.783 L 709.500 135.500 709.500 130.500 L 709.500 125.500 691.673 125.227 L 673.847 124.953 670.423 128.377 M 379.667 136.667 C 378.287 138.046, 378.981 147.838, 380.571 149.429 C 382.478 151.335, 392.991 151.609, 394.800 149.800 C 395.460 149.140, 396 146.305, 396 143.500 C 396 140.695, 395.460 137.860, 394.800 137.200 C 393.538 135.938, 380.842 135.491, 379.667 136.667 M 499.035 137.934 C 498.466 138.998, 498 144.995, 498 151.260 C 498 161.874, 498.158 162.800, 500.314 164.826 C 503.710 168.016, 512.774 167.934, 515.826 164.686 C 517.799 162.586, 518 161.303, 518 150.841 C 518 136.520, 517.622 136, 507.206 136 C 501.175 136, 499.910 136.299, 499.035 137.934 M 564.417 137.355 C 564.131 138.101, 564.033 141.588, 564.199 145.105 L 564.500 151.500 571.340 151.798 C 579.812 152.167, 581 151.307, 581 144.812 C 581 136.869, 580.106 136, 571.933 136 C 566.969 136, 564.786 136.394, 564.417 137.355 M 26.443 165.287 C 26.179 165.976, 26.084 177.313, 26.231 190.481 L 26.500 214.423 35 219.316 C 39.675 222.008, 45.750 225.587, 48.500 227.270 C 51.250 228.954, 55.075 231.188, 57 232.235 C 58.925 233.282, 62.300 235.223, 64.500 236.548 C 66.700 237.874, 70.075 239.755, 72 240.729 C 73.925 241.703, 75.648 242.832, 75.829 243.238 C 76.011 243.644, 78.036 244.883, 80.329 245.991 C 82.623 247.099, 86.300 249.113, 88.500 250.466 C 90.700 251.820, 93.625 253.508, 95 254.217 C 96.375 254.927, 98.625 256.225, 100 257.103 C 103.795 259.524, 123.125 271, 123.409 271 C 123.981 271, 121.871 257.337, 121.016 255.500 C 120.504 254.400, 119.416 250.125, 118.598 246 C 116.632 236.080, 114.064 226.209, 112.485 222.500 C 108.586 213.342, 104.399 205.089, 102.104 202.037 C 98.571 197.339, 85.303 184, 84.163 184 C 83.658 184, 82.653 183.287, 81.930 182.416 C 80.004 180.095, 67.993 174.273, 63.433 173.449 C 61.270 173.059, 59.019 172.361, 58.432 171.898 C 57.844 171.435, 54.919 170.542, 51.932 169.912 C 48.944 169.282, 46.050 168.418, 45.500 167.992 C 44.603 167.296, 39.822 166.235, 30.212 164.596 C 28.056 164.228, 26.758 164.466, 26.443 165.287 M 49.436 175.305 C 49.161 176.023, 49.062 182.182, 49.218 188.992 L 49.500 201.372 54 204.176 C 56.475 205.718, 60.300 207.903, 62.500 209.032 C 64.700 210.161, 68.300 212.174, 70.500 213.505 C 72.700 214.836, 76.075 216.856, 78 217.993 C 81.253 219.914, 83.531 221.232, 93.185 226.776 C 95.211 227.940, 98.712 230.056, 100.964 231.477 C 103.215 232.899, 106.463 234.343, 108.182 234.686 L 111.305 235.311 110.630 231.085 C 109.721 225.405, 107.721 222.622, 102.164 219.308 C 99.599 217.777, 96.600 215.977, 95.500 215.307 C 91.757 213.027, 84.511 209.069, 80.329 207.020 C 78.036 205.896, 76.011 204.644, 75.829 204.238 C 75.441 203.368, 70.924 200.694, 66 198.418 C 59.448 195.391, 59 194.544, 59 185.205 C 59 178.297, 58.675 176.474, 57.250 175.392 C 54.989 173.676, 50.083 173.621, 49.436 175.305 M 172.952 195.327 C 169.079 196.607, 165.013 199.246, 161.520 202.746 C 158.957 205.314, 152.706 217.557, 150.923 223.500 C 150.263 225.700, 149.361 228.400, 148.919 229.500 C 147.326 233.463, 143.769 248.683, 142.374 257.500 C 141.591 262.450, 140.480 267.331, 139.906 268.347 C 138.324 271.145, 139.544 271.461, 142.847 269.109 C 144.476 267.949, 146.088 267, 146.429 267 C 146.953 267, 153.655 263.099, 161.500 258.229 C 162.600 257.546, 165.075 256.206, 167 255.251 C 168.925 254.295, 172.605 252.068, 175.178 250.301 C 177.750 248.533, 181.350 246.369, 183.178 245.490 C 187.461 243.431, 191.191 241.307, 198 237.053 C 201.025 235.163, 204.850 232.883, 206.500 231.987 C 213.662 228.097, 219.689 224.582, 222.154 222.857 C 223.614 221.836, 225.216 221, 225.713 221 C 226.211 221, 227.491 220.353, 228.559 219.562 C 230.477 218.141, 230.476 218.105, 228.500 216.509 C 227.400 215.620, 224.925 214.191, 223 213.332 C 221.075 212.474, 218.305 210.922, 216.844 209.884 C 215.383 208.847, 211.333 206.368, 207.844 204.376 C 204.355 202.385, 199.925 199.855, 198.001 198.755 C 190.109 194.243, 180.293 192.900, 172.952 195.327 M 185.885 204.790 C 184.573 205.774, 182.375 207.135, 181 207.814 C 179.625 208.493, 174.900 211.267, 170.500 213.979 C 166.100 216.690, 161.074 219.566, 159.330 220.370 C 155.311 222.223, 154 224.698, 154 230.434 C 154 234.287, 154.303 235, 155.941 235 C 157.009 235, 158.183 234.513, 158.551 233.917 C 158.919 233.322, 161.083 231.944, 163.360 230.856 C 169.310 228.013, 174.232 225.218, 174.912 224.297 C 175.235 223.859, 177.075 222.703, 179 221.729 C 180.925 220.755, 184.300 218.879, 186.500 217.559 C 188.700 216.240, 192.525 214.080, 195 212.759 C 200.023 210.077, 201.025 207.790, 198.433 204.926 C 196.150 202.403, 189.165 202.328, 185.885 204.790" stroke="none" fill="#ffffff" fill-rule="evenodd"/></svg>