<svg xmlns="http://www.w3.org/2000/svg" width="301" height="295" viewBox="0 0 301 295" version="1.1"><path d="M 0.063 19.230 C 0.105 31.771, 0.443 37.714, 1.031 36.250 C 1.657 34.692, 2.792 33.986, 4.718 33.956 C 7.992 33.904, 16.589 31.744, 17.618 30.715 C 18.012 30.322, 20.058 30, 22.167 30 C 24.275 30, 26 29.595, 26 29.101 C 26 28.606, 28.025 27.931, 30.500 27.601 C 32.975 27.270, 37.025 26.730, 39.500 26.399 C 41.975 26.069, 44 25.394, 44 24.899 C 44 24.405, 45.998 24, 48.441 24 C 50.884 24, 53.123 23.610, 53.418 23.133 C 53.713 22.656, 55.877 21.976, 58.227 21.622 C 68.535 20.072, 70 19.732, 70 18.891 C 70 18.401, 71.998 18, 74.441 18 C 76.884 18, 79.160 17.550, 79.500 17 C 79.840 16.450, 81.854 16, 83.976 16 C 86.097 16, 87.983 15.551, 88.167 15.002 C 88.350 14.454, 90.394 13.931, 92.709 13.840 C 95.023 13.749, 96.684 13.298, 96.400 12.838 C 96.115 12.377, 98.121 12, 100.858 12 C 103.594 12, 105.983 11.581, 106.167 11.068 C 106.350 10.556, 108.300 9.922, 110.500 9.660 C 112.700 9.397, 115.850 8.761, 117.500 8.245 C 119.150 7.730, 121.021 7.487, 121.658 7.707 C 122.295 7.926, 123.110 7.632, 123.467 7.053 C 123.825 6.474, 125.522 6, 127.238 6 C 128.954 6, 131.740 5.585, 133.429 5.077 C 144.057 1.881, 156.219 0.819, 158.303 2.903 C 158.906 3.506, 161.335 4, 163.700 4 C 166.065 4, 168 4.450, 168 5 C 168 5.550, 169.548 6, 171.441 6 C 173.334 6, 175.160 6.450, 175.500 7 C 175.840 7.550, 178.266 8, 180.892 8 C 183.518 8, 185.988 8.322, 186.382 8.715 C 187.408 9.741, 196.004 11.904, 199.264 11.956 C 200.784 11.980, 202.809 12.410, 203.764 12.912 C 204.719 13.413, 208.200 14.340, 211.500 14.972 C 214.800 15.603, 218.882 16.543, 220.571 17.060 C 222.260 17.577, 224.821 18, 226.262 18 C 227.703 18, 229.192 18.501, 229.571 19.114 C 229.991 19.794, 231.846 20.016, 234.328 19.683 C 236.990 19.326, 237.896 19.454, 236.948 20.053 C 235.696 20.845, 235.703 20.981, 237 21.056 C 241.971 21.343, 246.628 22.233, 247.450 23.052 C 247.972 23.574, 249.858 24, 251.641 24 C 253.424 24, 255.172 24.469, 255.526 25.042 C 255.880 25.615, 258.148 25.981, 260.566 25.856 C 262.983 25.731, 265.308 26.009, 265.731 26.473 C 266.154 26.938, 265.689 27.027, 264.698 26.671 C 263.624 26.284, 263.143 26.422, 263.507 27.011 C 263.843 27.555, 265.972 28, 268.238 28 C 270.504 28, 273.740 28.420, 275.429 28.932 C 277.118 29.445, 280.525 30.373, 283 30.994 C 285.475 31.615, 288.827 32.540, 290.448 33.050 C 292.335 33.643, 293.617 33.620, 294.008 32.987 C 294.363 32.412, 295.543 32.858, 296.823 34.050 C 298.035 35.178, 299.358 35.897, 299.763 35.646 C 300.168 35.396, 300.383 73.885, 300.239 121.178 C 300.036 187.986, 299.702 207.425, 298.739 208.332 C 298.058 208.975, 296.262 210.139, 294.750 210.919 C 293.238 211.699, 292 212.712, 292 213.169 C 292 213.626, 291.100 214, 290 214 C 288.900 214, 288 214.366, 288 214.813 C 288 215.261, 286.415 216.249, 284.478 217.008 C 282.542 217.768, 280.222 219.202, 279.323 220.195 C 278.425 221.188, 276.860 222, 275.845 222 C 274.830 222, 274 222.450, 274 223 C 274 223.550, 273.100 224, 272 224 C 269.705 224, 269.457 224.991, 271.250 227.002 C 272.306 228.186, 272.240 228.207, 270.822 227.139 C 268.544 225.422, 262.249 228.390, 263.913 230.396 C 264.684 231.324, 264.580 231.667, 263.528 231.667 C 262.736 231.667, 262.320 231.292, 262.603 230.833 C 262.886 230.375, 262.390 230, 261.500 230 C 260.610 230, 260.160 230.450, 260.500 231 C 260.840 231.550, 260.173 232, 259.017 232 C 257.862 232, 255.950 232.900, 254.770 234 C 253.589 235.100, 252.033 236, 251.311 236 C 250.590 236, 250 236.450, 250 237 C 250 237.550, 249.100 238, 248 238 C 246.900 238, 246 238.450, 246 239 C 246 239.550, 245.438 240.010, 244.750 240.022 C 244.063 240.034, 242.375 240.974, 241 242.109 C 239.625 243.245, 239.175 243.823, 240 243.395 C 241.292 242.724, 241.309 242.851, 240.128 244.308 C 238.642 246.140, 237.494 246.628, 238.500 245 C 238.840 244.450, 238.454 244, 237.642 244 C 236.831 244, 236.017 244.416, 235.833 244.925 C 235.650 245.434, 234.843 245.996, 234.039 246.175 C 233.236 246.354, 231.688 247.287, 230.600 248.250 C 229.513 249.212, 227.920 250.007, 227.061 250.015 C 225.688 250.029, 225.681 250.147, 227 251 C 228.138 251.736, 227.716 251.973, 225.250 251.985 C 223.463 251.993, 222 252.450, 222 253 C 222 253.550, 221.410 254, 220.689 254 C 219.967 254, 218.440 254.873, 217.295 255.940 C 216.150 257.007, 214.940 257.607, 214.606 257.273 C 214.273 256.940, 214 257.417, 214 258.333 C 214 259.526, 213.129 260, 210.941 260 C 209.156 260, 208.139 260.417, 208.500 261 C 208.840 261.550, 208.276 262, 207.248 262 C 206.219 262, 204.411 262.900, 203.230 264 C 202.050 265.100, 200.390 266, 199.542 266 C 198.219 266, 197.660 266.960, 197.797 269 C 197.815 269.275, 196.499 269.596, 194.871 269.713 C 193.244 269.830, 190.625 270.843, 189.052 271.963 C 187.478 273.083, 185.904 274, 185.554 274 C 185.203 274, 183.950 274.900, 182.770 276 C 181.589 277.100, 179.893 278, 179 278 C 178.107 278, 176.440 278.873, 175.295 279.940 C 174.150 281.007, 173.004 281.671, 172.749 281.416 C 172.494 281.160, 171.716 281.638, 171.020 282.476 C 170.324 283.314, 169.010 284, 168.098 284 C 167.187 284, 165.793 284.900, 165 286 C 164.207 287.100, 162.758 288, 161.779 288 C 160.801 288, 160 288.398, 160 288.883 C 160 289.369, 159.055 290.014, 157.899 290.316 C 156.744 290.618, 156.092 291.341, 156.451 291.921 C 156.844 292.556, 156.504 292.747, 155.600 292.400 C 154.773 292.082, 153.513 292.183, 152.800 292.623 C 151.139 293.650, 145.836 294.074, 146.418 293.133 C 146.660 292.742, 144.752 291.325, 142.179 289.985 C 139.605 288.645, 137.275 287.277, 137 286.944 C 136.725 286.612, 135.037 285.703, 133.250 284.926 C 131.463 284.148, 130 283.172, 130 282.756 C 130 282.340, 129.438 281.990, 128.750 281.978 C 128.063 281.966, 126.375 281.076, 125 280 C 123.625 278.924, 121.686 278.034, 120.691 278.022 C 119.696 278.010, 119.160 277.550, 119.500 277 C 119.840 276.450, 119.598 276, 118.963 276 C 118.328 276, 116.511 275.076, 114.925 273.947 C 113.339 272.817, 111.019 271.697, 109.771 271.458 C 108.522 271.219, 106.967 270.298, 106.317 269.412 C 105.638 268.487, 104.612 268.122, 103.912 268.554 C 103.143 269.030, 102.948 268.892, 103.386 268.184 C 103.813 267.494, 103.002 266.792, 101.291 266.369 C 99.756 265.990, 97.772 264.852, 96.883 263.840 C 95.993 262.828, 94.531 262, 93.633 262 C 92.735 262, 92 261.602, 92 261.117 C 92 260.631, 91.213 259.984, 90.250 259.678 C 88.093 258.994, 83.050 255.953, 81.151 254.192 C 80.376 253.473, 79.125 253.122, 78.371 253.411 C 77.617 253.700, 77 253.501, 77 252.969 C 77 252.436, 76.298 252, 75.441 252 C 74.584 252, 74.160 251.550, 74.500 251 C 74.840 250.450, 74.416 250, 73.559 250 C 72.702 250, 72 249.550, 72 249 C 72 248.450, 71.100 248, 70 248 C 68.900 248, 68 247.550, 68 247 C 68 246.450, 67.663 246.100, 67.250 246.222 C 66.838 246.345, 65.282 245.631, 63.794 244.636 C 62.306 243.641, 60.549 243.161, 59.889 243.568 C 59.166 244.016, 58.953 243.886, 59.351 243.241 C 59.721 242.643, 58.688 241.587, 57.006 240.842 C 55.353 240.110, 54 239.123, 54 238.649 C 54 238.174, 53.325 238.045, 52.500 238.362 C 51.675 238.678, 51 238.494, 51 237.952 C 51 237.411, 49.425 236.217, 47.500 235.299 C 45.575 234.381, 44 233.263, 44 232.815 C 44 232.367, 43.137 232, 42.083 232 C 41.029 232, 40.017 231.658, 39.833 231.241 C 39.396 230.245, 28.732 223.852, 27.714 223.976 C 27.282 224.028, 26.238 223.380, 25.393 222.536 C 24.548 221.691, 23.237 221, 22.478 221 C 21.720 221, 20.740 220.437, 20.300 219.750 C 19.252 218.113, 15.429 216, 13.514 216 C 12.681 216, 12 215.550, 12 215 C 12 214.450, 11.363 214, 10.583 214 C 9.804 214, 9.017 213.591, 8.833 213.092 C 8.650 212.592, 7.600 212.029, 6.500 211.842 C 5.400 211.654, 3.772 210.713, 2.883 209.750 C 1.993 208.787, 0.981 208, 0.633 208 C 0.285 208, 0 227.576, 0 251.503 L 0 295.006 150.750 294.753 L 301.500 294.500 301.500 147.250 L 301.500 0.001 238.833 0 C 189.677 0, 176.041 0.269, 175.583 1.250 C 175.137 2.206, 174.867 2.218, 174.434 1.301 C 174 0.384, 153.462 0.086, 86.934 0.031 L -0 -0.040 0.063 19.230 M 0.417 19.500 C 0.418 29.950, 0.566 34.089, 0.746 28.698 C 0.926 23.307, 0.925 14.757, 0.744 9.698 C 0.563 4.639, 0.416 9.050, 0.417 19.500 M 102 3 C 102 3.550, 103.350 4, 105 4 C 106.650 4, 108 3.550, 108 3 C 108 2.450, 106.650 2, 105 2 C 103.350 2, 102 2.450, 102 3 M 175 5 C 175.825 5.533, 176.950 5.969, 177.500 5.969 C 178.050 5.969, 177.825 5.533, 177 5 C 176.175 4.467, 175.050 4.031, 174.500 4.031 C 173.950 4.031, 174.175 4.467, 175 5 M 190 5 C 190 5.550, 190.450 6, 191 6 C 191.550 6, 192 5.550, 192 5 C 192 4.450, 191.550 4, 191 4 C 190.450 4, 190 4.450, 190 5 M 92.750 8.662 C 93.438 8.940, 94.563 8.940, 95.250 8.662 C 95.938 8.385, 95.375 8.158, 94 8.158 C 92.625 8.158, 92.063 8.385, 92.750 8.662 M 256 23 C 256 23.550, 256.450 24, 257 24 C 257.550 24, 258 23.550, 258 23 C 258 22.450, 257.550 22, 257 22 C 256.450 22, 256 22.450, 256 23 M 284 26.383 C 284 26.594, 284.900 27.002, 286 27.290 C 287.100 27.577, 288 27.405, 288 26.906 C 288 26.408, 287.100 26, 286 26 C 284.900 26, 284 26.173, 284 26.383 M 268.209 92.350 C 264.756 93.754, 262.771 95.194, 262.493 96.500 C 262.259 97.600, 260.255 108.850, 258.040 121.500 C 252.785 151.515, 251.716 157.050, 251.261 156.595 C 250.868 156.201, 247.175 140.993, 241.890 118 C 240.183 110.575, 238.685 104.388, 238.561 104.251 C 237.975 103.605, 226.646 108.889, 225.997 110.111 C 225.592 110.875, 222.415 125.791, 218.938 143.258 C 215.461 160.726, 212.278 174.676, 211.863 174.258 C 211.249 173.641, 206.622 154.251, 201.898 132.500 C 200.400 125.606, 199.188 120.855, 198.836 120.503 C 198.556 120.223, 183.099 125.799, 182.227 126.495 C 181.960 126.708, 186.005 142.789, 192.162 166 C 198.003 188.023, 201.009 199.543, 202.643 206.165 C 203.978 211.580, 204.588 212.702, 205.893 212.151 C 209.497 210.630, 217.890 205.986, 218.334 205.269 C 218.595 204.846, 221.593 190.775, 224.995 174 C 228.398 157.225, 231.498 143.165, 231.885 142.756 C 232.272 142.346, 235.229 152.696, 238.457 165.756 C 241.684 178.815, 244.516 190.039, 244.749 190.698 C 245.040 191.518, 247.142 190.925, 251.414 188.819 C 257.622 185.757, 257.659 185.714, 258.771 180.121 C 259.385 177.029, 261.756 164.825, 264.038 153 C 266.320 141.175, 269.945 122.520, 272.094 111.544 C 274.242 100.568, 276 91.231, 276 90.794 C 276 89.591, 274.031 89.984, 268.209 92.350 M 51.490 108.310 C 44.682 115.118, 44.237 128.026, 50.382 140.457 C 53.091 145.940, 56.657 150.545, 64.832 159.118 C 70.800 165.378, 76.205 171.483, 76.842 172.684 C 77.479 173.886, 78 176.708, 78 178.956 C 78 182.311, 77.566 183.241, 75.576 184.147 C 70.687 186.375, 59.898 178.469, 53.662 168.089 L 51.613 164.679 47.806 168.968 C 45.713 171.327, 44 173.784, 44 174.429 C 44 176.495, 52.490 187.340, 58.146 192.500 C 72.210 205.328, 85.969 206.625, 91.690 195.662 C 94.042 191.154, 93.805 179.114, 91.221 171.832 C 88.454 164.038, 84.387 158.449, 72.487 146.089 C 66.880 140.265, 61.776 134.517, 61.146 133.316 C 58.636 128.532, 60.637 122, 64.611 122 C 67.891 122, 74.111 126.286, 79.017 131.926 L 84.217 137.905 88.163 132.913 C 90.933 129.408, 91.924 127.335, 91.487 125.958 C 91.144 124.879, 88.064 121.154, 84.641 117.681 C 76.631 109.551, 67.873 105, 60.240 105 C 55.415 105, 54.425 105.375, 51.490 108.310 M 0.459 251.500 C 0.460 275.700, 0.590 285.457, 0.749 273.182 C 0.908 260.907, 0.908 241.107, 0.749 229.182 C 0.589 217.257, 0.459 227.300, 0.459 251.500 M 36 233 C 36 233.550, 36.450 234, 37 234 C 37.550 234, 38 233.550, 38 233 C 38 232.450, 37.550 232, 37 232 C 36.450 232, 36 232.450, 36 233 M 176 283 C 176 283.550, 176.450 284, 177 284 C 177.550 284, 178 283.550, 178 283 C 178 282.450, 177.550 282, 177 282 C 176.450 282, 176 282.450, 176 283" stroke="none" fill="#f7ffff" fill-rule="evenodd"/><path d="M 2.244 121.811 L 2.500 207.410 10 211.859 C 17.330 216.208, 39.038 228.716, 48 233.755 C 50.475 235.147, 53.625 237.057, 55 238 C 56.375 238.943, 57.950 239.891, 58.500 240.107 C 59.314 240.427, 77.240 250.599, 83 254.009 C 89.979 258.141, 112.815 271.465, 114 272.096 C 114.825 272.535, 120.900 276.017, 127.500 279.833 C 143.331 288.986, 148.767 292, 149.442 292 C 149.749 292, 150 245.483, 150 188.629 L 150 85.258 82.750 62.934 C 45.763 50.656, 12.460 39.620, 8.744 38.411 L 1.989 36.211 2.244 121.811 M 54 105.691 C 51.782 106.838, 49.651 109.148, 48.182 112 C 46.152 115.940, 45.909 117.621, 46.227 125.500 C 46.725 137.830, 49.945 143.778, 64.187 158.677 C 75.498 170.509, 78 174.145, 78 178.750 C 78 183.873, 73.815 185.507, 68.169 182.587 C 65.355 181.132, 58.506 174.144, 53.865 167.993 L 51.230 164.500 47.156 169 C 44.915 171.475, 43.064 173.788, 43.041 174.140 C 42.915 176.114, 54.381 190.133, 59.475 194.231 C 74.114 206.011, 86.334 206.989, 91.602 196.802 C 94.140 191.894, 94.577 181.511, 92.543 174.425 C 89.955 165.409, 86.843 160.887, 73.933 147.389 C 61.403 134.289, 58.613 129.460, 60.998 125.004 C 63.460 120.403, 70.123 123.125, 78.473 132.144 L 84.267 138.403 86.685 135.451 C 88.014 133.828, 89.970 131.318, 91.031 129.873 L 92.961 127.246 90.133 123.373 C 79.708 109.095, 63.120 100.978, 54 105.691 M 258.158 114 C 258.158 115.375, 258.385 115.938, 258.662 115.250 C 258.940 114.563, 258.940 113.438, 258.662 112.750 C 258.385 112.063, 258.158 112.625, 258.158 114 M 271.195 119.500 C 271.215 121.150, 271.439 121.704, 271.693 120.731 C 271.947 119.758, 271.930 118.408, 271.656 117.731 C 271.382 117.054, 271.175 117.850, 271.195 119.500 M 256.195 124.500 C 256.215 126.150, 256.439 126.704, 256.693 125.731 C 256.947 124.758, 256.930 123.408, 256.656 122.731 C 256.382 122.054, 256.175 122.850, 256.195 124.500 M 220.195 130.500 C 220.215 132.150, 220.439 132.704, 220.693 131.731 C 220.947 130.758, 220.930 129.408, 220.656 128.731 C 220.382 128.054, 220.175 128.850, 220.195 130.500 M 269.158 130 C 269.158 131.375, 269.385 131.938, 269.662 131.250 C 269.940 130.563, 269.940 129.438, 269.662 128.750 C 269.385 128.063, 269.158 128.625, 269.158 130 M 267.158 140 C 267.158 141.375, 267.385 141.938, 267.662 141.250 C 267.940 140.563, 267.940 139.438, 267.662 138.750 C 267.385 138.063, 267.158 138.625, 267.158 140 M 231.531 145.293 C 231.103 146.279, 231.034 147.367, 231.376 147.710 C 232.392 148.725, 233.211 147.299, 232.743 145.328 C 232.329 143.581, 232.275 143.580, 231.531 145.293 M 249.158 146 C 249.158 147.375, 249.385 147.938, 249.662 147.250 C 249.940 146.563, 249.940 145.438, 249.662 144.750 C 249.385 144.063, 249.158 144.625, 249.158 146 M 234.158 154 C 234.158 155.375, 234.385 155.938, 234.662 155.250 C 234.940 154.563, 234.940 153.438, 234.662 152.750 C 234.385 152.063, 234.158 152.625, 234.158 154 M 211 169.941 C 211 171.009, 211.447 172.158, 211.993 172.496 C 212.569 172.852, 212.898 172.036, 212.775 170.555 C 212.530 167.588, 211 167.059, 211 169.941 M 252 189 C 250.718 189.828, 250.754 189.972, 252.250 189.985 C 253.213 189.993, 254 189.550, 254 189 C 254 187.780, 253.887 187.780, 252 189 M 198.158 194 C 198.158 195.375, 198.385 195.938, 198.662 195.250 C 198.940 194.563, 198.940 193.438, 198.662 192.750 C 198.385 192.063, 198.158 192.625, 198.158 194 M 221.158 196 C 221.158 197.375, 221.385 197.938, 221.662 197.250 C 221.940 196.563, 221.940 195.438, 221.662 194.750 C 221.385 194.063, 221.158 194.625, 221.158 196 M 252 232.969 C 252 233.501, 252.675 233.678, 253.500 233.362 C 254.325 233.045, 255 232.609, 255 232.393 C 255 232.177, 254.325 232, 253.500 232 C 252.675 232, 252 232.436, 252 232.969" stroke="none" fill="#9b161b" fill-rule="evenodd"/><path d="M 174 1 C 174 1.550, 174.450 2, 175 2 C 175.550 2, 176 1.550, 176 1 C 176 0.450, 175.550 0, 175 0 C 174.450 0, 174 0.450, 174 1 M 148 2.133 C 145.525 2.493, 141.025 3.317, 138 3.964 C 134.975 4.611, 130.700 5.384, 128.500 5.683 C 126.300 5.981, 123.927 6.688, 123.226 7.255 C 122.525 7.821, 121.704 8.037, 121.401 7.734 C 121.097 7.431, 119.421 7.633, 117.675 8.183 C 115.929 8.733, 112.700 9.397, 110.500 9.660 C 108.300 9.922, 106.350 10.556, 106.167 11.068 C 105.983 11.581, 103.594 12, 100.858 12 C 98.121 12, 96.115 12.377, 96.400 12.838 C 96.684 13.298, 95.023 13.749, 92.709 13.840 C 90.394 13.931, 88.350 14.454, 88.167 15.002 C 87.983 15.551, 86.097 16, 83.976 16 C 81.854 16, 79.840 16.450, 79.500 17 C 79.160 17.550, 76.884 18, 74.441 18 C 71.998 18, 70 18.401, 70 18.891 C 70 19.732, 68.535 20.072, 58.227 21.622 C 55.877 21.976, 53.713 22.656, 53.418 23.133 C 53.123 23.610, 50.884 24, 48.441 24 C 45.998 24, 44 24.405, 44 24.899 C 44 25.746, 42.547 26.040, 30.750 27.581 C 28.138 27.922, 26 28.606, 26 29.101 C 26 29.595, 24.275 30, 22.167 30 C 20.058 30, 18.012 30.322, 17.618 30.715 C 16.590 31.743, 7.993 33.904, 4.725 33.956 C 2.674 33.988, 1.691 34.682, 0.955 36.618 C 0.322 38.284, -0.017 69.761, 0.022 123.205 L 0.084 207.175 2.293 209.337 C 3.509 210.527, 5.402 211.654, 6.502 211.842 C 7.601 212.029, 8.650 212.592, 8.833 213.092 C 9.017 213.591, 9.804 214, 10.583 214 C 11.362 214, 12 214.450, 12 215 C 12 215.550, 12.810 216, 13.800 216 C 14.790 216, 16.132 216.532, 16.783 217.183 C 17.434 217.834, 18.237 218.096, 18.567 217.766 C 19.050 217.284, 5.626 208.801, 2.744 207.767 C 2.329 207.618, 2.104 168.915, 2.244 121.760 L 2.500 36.023 76.250 60.589 L 150 85.155 150 188.578 C 150 245.460, 149.649 292, 149.220 292 C 148.791 292, 142.603 288.566, 135.470 284.369 C 128.336 280.171, 120.232 275.503, 117.461 273.995 C 113.276 271.717, 88.163 257.133, 83 253.981 C 82.175 253.478, 77.268 250.689, 72.095 247.783 C 59.958 240.965, 58.535 240.139, 52.235 236.250 C 49.339 234.462, 46.798 233, 46.587 233 C 46.377 233, 43.346 231.274, 39.852 229.165 C 27.387 221.640, 20 217.845, 20 218.966 C 20 219.592, 21.350 220.575, 23 221.150 C 24.650 221.725, 26 222.602, 26 223.098 C 26 223.594, 26.399 223.888, 26.886 223.750 C 27.892 223.466, 39.323 230.079, 39.833 231.241 C 40.017 231.658, 41.029 232, 42.083 232 C 43.138 232, 44 232.420, 44 232.933 C 44 233.446, 44.907 234.153, 46.015 234.505 C 47.123 234.856, 47.790 235.531, 47.498 236.003 C 47.206 236.475, 47.494 237.187, 48.138 237.585 C 48.869 238.037, 49.041 237.876, 48.595 237.155 C 48.203 236.520, 48.373 236, 48.972 236 C 49.572 236, 50.311 236.647, 50.614 237.437 C 50.917 238.227, 51.803 238.629, 52.583 238.330 C 53.362 238.031, 54 238.284, 54 238.893 C 54 239.502, 54.702 240, 55.559 240 C 56.416 240, 56.833 240.461, 56.485 241.025 C 56.136 241.588, 56.222 241.985, 56.676 241.906 C 58.806 241.536, 60.052 242.106, 59.405 243.155 C 58.953 243.885, 59.131 244.037, 59.889 243.568 C 60.549 243.161, 62.306 243.641, 63.794 244.636 C 65.282 245.631, 66.838 246.345, 67.250 246.222 C 67.662 246.100, 68 246.450, 68 247 C 68 247.550, 68.900 248, 70 248 C 71.100 248, 72 248.450, 72 249 C 72 249.550, 72.702 250, 73.559 250 C 74.416 250, 74.840 250.450, 74.500 251 C 74.160 251.550, 74.584 252, 75.441 252 C 76.298 252, 77 252.436, 77 252.969 C 77 253.501, 77.617 253.700, 78.371 253.411 C 79.125 253.122, 80.376 253.473, 81.151 254.192 C 83.050 255.953, 88.093 258.994, 90.250 259.678 C 91.213 259.984, 92 260.631, 92 261.117 C 92 261.602, 92.735 262, 93.633 262 C 94.531 262, 95.993 262.828, 96.883 263.840 C 97.772 264.852, 99.756 265.990, 101.291 266.369 C 103.002 266.792, 103.813 267.494, 103.386 268.184 C 102.948 268.892, 103.143 269.030, 103.912 268.554 C 104.612 268.122, 105.638 268.487, 106.317 269.412 C 106.967 270.298, 108.522 271.219, 109.771 271.458 C 111.019 271.697, 113.339 272.817, 114.925 273.947 C 116.511 275.076, 118.328 276, 118.963 276 C 119.598 276, 119.840 276.450, 119.500 277 C 119.160 277.550, 119.696 278.010, 120.691 278.022 C 121.686 278.034, 123.625 278.924, 125 280 C 126.375 281.076, 128.063 281.966, 128.750 281.978 C 129.438 281.990, 130 282.340, 130 282.756 C 130 283.172, 131.463 284.148, 133.250 284.926 C 135.037 285.703, 136.725 286.612, 137 286.944 C 137.275 287.277, 139.605 288.645, 142.179 289.985 C 144.752 291.325, 146.680 292.709, 146.463 293.060 C 146.246 293.412, 147.811 293.657, 149.942 293.606 C 152.073 293.555, 153.563 293.102, 153.252 292.599 C 152.941 292.096, 153.658 291.939, 154.845 292.249 C 156.117 292.582, 156.756 292.414, 156.401 291.839 C 156.070 291.304, 156.744 290.618, 157.899 290.316 C 159.055 290.014, 160 289.369, 160 288.883 C 160 288.398, 160.801 288, 161.779 288 C 162.758 288, 164.207 287.100, 165 286 C 165.793 284.900, 167.187 284, 168.098 284 C 169.010 284, 170.324 283.314, 171.020 282.476 C 171.716 281.638, 172.494 281.160, 172.749 281.416 C 173.004 281.671, 174.150 281.007, 175.295 279.940 C 176.440 278.873, 178.107 278, 179 278 C 179.893 278, 181.589 277.100, 182.770 276 C 183.950 274.900, 185.203 274, 185.554 274 C 185.904 274, 187.478 273.083, 189.052 271.963 C 190.625 270.843, 193.244 269.830, 194.871 269.713 C 196.499 269.596, 197.815 269.275, 197.797 269 C 197.660 266.952, 198.223 266, 199.571 266 C 200.436 266, 201.822 265.321, 202.652 264.491 C 203.482 263.661, 204.644 263.280, 205.235 263.645 C 205.872 264.039, 206.018 263.839, 205.595 263.155 C 205.142 262.421, 205.654 262, 207 262 C 208.165 262, 208.840 261.550, 208.500 261 C 208.139 260.417, 209.156 260, 210.941 260 C 213.129 260, 214 259.526, 214 258.333 C 214 257.417, 214.273 256.940, 214.606 257.273 C 214.940 257.607, 216.150 257.007, 217.295 255.940 C 218.440 254.873, 219.967 254, 220.689 254 C 221.410 254, 222 253.550, 222 253 C 222 252.450, 223.463 251.993, 225.250 251.985 C 227.716 251.973, 228.138 251.736, 227 251 C 225.681 250.147, 225.688 250.029, 227.061 250.015 C 227.920 250.007, 229.513 249.212, 230.600 248.250 C 231.688 247.287, 233.236 246.354, 234.039 246.175 C 234.843 245.996, 235.650 245.434, 235.833 244.925 C 236.017 244.416, 236.831 244, 237.642 244 C 238.557 244, 238.832 244.475, 238.367 245.250 C 237.851 246.110, 238.141 246.074, 239.297 245.137 C 240.222 244.387, 240.755 243.413, 240.483 242.973 C 240.211 242.533, 241.341 241.574, 242.994 240.842 C 244.647 240.110, 246 239.172, 246 238.756 C 246 238.340, 246.900 238, 248 238 C 249.100 238, 250 237.550, 250 237 C 250 236.450, 250.590 236, 251.311 236 C 252.033 236, 253.589 235.100, 254.770 234 C 255.950 232.900, 257.862 232, 259.017 232 C 260.173 232, 260.840 231.550, 260.500 231 C 260.160 230.450, 260.610 230, 261.500 230 C 262.390 230, 262.886 230.375, 262.603 230.833 C 262.320 231.292, 262.736 231.667, 263.528 231.667 C 264.580 231.667, 264.684 231.324, 263.913 230.396 C 262.249 228.390, 268.544 225.422, 270.822 227.139 C 272.240 228.207, 272.306 228.186, 271.250 227.002 C 269.457 224.991, 269.705 224, 272 224 C 273.100 224, 274 223.550, 274 223 C 274 222.450, 274.830 222, 275.845 222 C 276.860 222, 278.425 221.188, 279.323 220.195 C 280.222 219.202, 282.542 217.768, 284.478 217.008 C 286.415 216.249, 288 215.261, 288 214.813 C 288 214.366, 288.900 214, 290 214 C 291.100 214, 292 213.626, 292 213.169 C 292 212.712, 293.238 211.699, 294.750 210.919 C 296.262 210.139, 298.058 208.975, 298.739 208.332 C 299.702 207.425, 300.036 187.986, 300.239 121.178 C 300.383 73.885, 300.168 35.396, 299.763 35.646 C 299.358 35.897, 298.035 35.178, 296.823 34.050 C 295.543 32.858, 294.363 32.412, 294.008 32.987 C 293.617 33.620, 292.335 33.643, 290.448 33.050 C 288.827 32.540, 285.475 31.615, 283 30.994 C 280.525 30.373, 277.118 29.445, 275.429 28.932 C 273.740 28.420, 270.504 28, 268.238 28 C 265.972 28, 263.843 27.555, 263.507 27.011 C 263.143 26.422, 263.624 26.284, 264.698 26.671 C 265.689 27.027, 266.154 26.938, 265.731 26.473 C 265.308 26.009, 262.983 25.731, 260.566 25.856 C 258.148 25.981, 255.880 25.615, 255.526 25.042 C 255.172 24.469, 253.424 24, 251.641 24 C 249.858 24, 247.973 23.574, 247.450 23.052 C 246.628 22.233, 241.971 21.343, 237 21.056 C 235.703 20.981, 235.696 20.845, 236.948 20.053 C 237.896 19.454, 236.990 19.326, 234.328 19.683 C 231.846 20.016, 229.991 19.794, 229.571 19.114 C 229.192 18.501, 227.703 18, 226.262 18 C 224.821 18, 222.260 17.577, 220.571 17.060 C 218.882 16.543, 214.800 15.603, 211.500 14.972 C 208.200 14.340, 204.719 13.413, 203.764 12.912 C 202.809 12.410, 200.784 11.980, 199.264 11.956 C 196.004 11.904, 187.408 9.741, 186.382 8.715 C 185.988 8.322, 183.518 8, 180.892 8 C 178.266 8, 175.840 7.550, 175.500 7 C 175.160 6.450, 173.334 6, 171.441 6 C 169.548 6, 168 5.550, 168 5 C 168 4.450, 166.002 4, 163.559 4 C 161.116 4, 158.872 3.602, 158.571 3.115 C 157.769 1.817, 153.134 1.387, 148 2.133 M 102 3 C 102 3.550, 103.350 4, 105 4 C 106.650 4, 108 3.550, 108 3 C 108 2.450, 106.650 2, 105 2 C 103.350 2, 102 2.450, 102 3 M 175 5 C 175.825 5.533, 176.950 5.969, 177.500 5.969 C 178.050 5.969, 177.825 5.533, 177 5 C 176.175 4.467, 175.050 4.031, 174.500 4.031 C 173.950 4.031, 174.175 4.467, 175 5 M 190 5 C 190 5.550, 190.450 6, 191 6 C 191.550 6, 192 5.550, 192 5 C 192 4.450, 191.550 4, 191 4 C 190.450 4, 190 4.450, 190 5 M 92.750 8.662 C 93.438 8.940, 94.563 8.940, 95.250 8.662 C 95.938 8.385, 95.375 8.158, 94 8.158 C 92.625 8.158, 92.063 8.385, 92.750 8.662 M 256 23 C 256 23.550, 256.450 24, 257 24 C 257.550 24, 258 23.550, 258 23 C 258 22.450, 257.550 22, 257 22 C 256.450 22, 256 22.450, 256 23 M 284 26.383 C 284 26.594, 284.900 27.002, 286 27.290 C 287.100 27.577, 288 27.405, 288 26.906 C 288 26.408, 287.100 26, 286 26 C 284.900 26, 284 26.173, 284 26.383 M 222.750 61.162 L 151 85.167 151 188.609 L 151 292.051 154.250 290.400 C 156.037 289.492, 162.675 285.703, 169 281.981 C 175.325 278.259, 193.550 267.679, 209.500 258.471 C 225.450 249.264, 247.050 236.793, 257.500 230.759 C 267.950 224.725, 281.332 217.024, 287.239 213.644 L 297.977 207.500 297.989 122.250 C 297.999 41.692, 297.904 37.004, 296.250 37.079 C 295.288 37.122, 262.212 47.960, 222.750 61.162 M 274.572 89.750 C 275.069 90.162, 275.813 90.950, 276.223 91.500 C 276.649 92.071, 276.976 91.749, 276.985 90.750 C 276.993 89.777, 276.260 89, 275.333 89 C 274.417 89, 274.074 89.338, 274.572 89.750 M 58.762 104.707 C 60.006 104.946, 61.806 104.937, 62.762 104.687 C 63.718 104.437, 62.700 104.241, 60.500 104.252 C 58.300 104.263, 57.518 104.468, 58.762 104.707 M 50.405 108.250 L 48.500 110.500 50.750 108.595 C 51.987 107.547, 53 106.535, 53 106.345 C 53 105.545, 52.195 106.136, 50.405 108.250 M 229 107 C 228.175 107.533, 227.950 107.969, 228.500 107.969 C 229.050 107.969, 230.175 107.533, 231 107 C 231.825 106.467, 232.050 106.031, 231.500 106.031 C 230.950 106.031, 229.825 106.467, 229 107 M 259.158 112 C 259.158 113.375, 259.385 113.938, 259.662 113.250 C 259.940 112.563, 259.940 111.438, 259.662 110.750 C 259.385 110.063, 259.158 110.625, 259.158 112 M 270.158 121 C 270.158 122.375, 270.385 122.938, 270.662 122.250 C 270.940 121.563, 270.940 120.438, 270.662 119.750 C 270.385 119.063, 270.158 119.625, 270.158 121 M 63.750 122.662 C 64.438 122.940, 65.563 122.940, 66.250 122.662 C 66.938 122.385, 66.375 122.158, 65 122.158 C 63.625 122.158, 63.063 122.385, 63.750 122.662 M 75.500 129 C 77.648 131.200, 79.631 133, 79.906 133 C 80.181 133, 78.648 131.200, 76.500 129 C 74.352 126.800, 72.369 125, 72.094 125 C 71.819 125, 73.352 126.800, 75.500 129 M 268.158 131 C 268.158 132.375, 268.385 132.938, 268.662 132.250 C 268.940 131.563, 268.940 130.438, 268.662 129.750 C 268.385 129.063, 268.158 129.625, 268.158 131 M 231.667 142.667 C 231.300 143.033, 231 143.798, 231 144.367 C 231 144.993, 231.466 144.934, 232.183 144.217 C 232.834 143.566, 233.134 142.801, 232.850 142.517 C 232.566 142.232, 232.033 142.300, 231.667 142.667 M 253.158 146 C 253.158 147.375, 253.385 147.938, 253.662 147.250 C 253.940 146.563, 253.940 145.438, 253.662 144.750 C 253.385 144.063, 253.158 144.625, 253.158 146 M 56.500 151 C 57.495 152.100, 58.535 153, 58.810 153 C 59.085 153, 58.495 152.100, 57.500 151 C 56.505 149.900, 55.465 149, 55.190 149 C 54.915 149, 55.505 149.900, 56.500 151 M 264.158 152 C 264.158 153.375, 264.385 153.938, 264.662 153.250 C 264.940 152.563, 264.940 151.438, 264.662 150.750 C 264.385 150.063, 264.158 150.625, 264.158 152 M 250.086 153 C 250.055 153.825, 250.467 155.175, 251 156 C 252.181 157.828, 252.181 156.249, 251 153.500 C 250.433 152.181, 250.122 152.011, 250.086 153 M 81.500 156 C 82.495 157.100, 83.535 158, 83.810 158 C 84.085 158, 83.495 157.100, 82.500 156 C 81.505 154.900, 80.465 154, 80.190 154 C 79.915 154, 80.505 154.900, 81.500 156 M 43.980 172.524 C 43.284 173.362, 42.909 174.242, 43.145 174.479 C 43.382 174.715, 44.125 174.030, 44.796 172.955 C 46.248 170.630, 45.764 170.375, 43.980 172.524 M 211 172.882 C 211 173.432, 211.450 174.160, 212 174.500 C 212.550 174.840, 213 174.668, 213 174.118 C 213 173.568, 212.550 172.840, 212 172.500 C 211.450 172.160, 211 172.332, 211 172.882 M 61 177.500 C 62.866 179.425, 64.617 181, 64.892 181 C 65.167 181, 63.866 179.425, 62 177.500 C 60.134 175.575, 58.383 174, 58.108 174 C 57.833 174, 59.134 175.575, 61 177.500 M 93.195 180.500 C 93.215 182.150, 93.439 182.704, 93.693 181.731 C 93.947 180.758, 93.930 179.408, 93.656 178.731 C 93.382 178.054, 93.175 178.850, 93.195 180.500 M 55 190.500 C 56.866 192.425, 58.617 194, 58.892 194 C 59.167 194, 57.866 192.425, 56 190.500 C 54.134 188.575, 52.383 187, 52.108 187 C 51.833 187, 53.134 188.575, 55 190.500 M 88.405 200.250 L 86.500 202.500 88.750 200.595 C 90.864 198.805, 91.455 198, 90.655 198 C 90.465 198, 89.453 199.012, 88.405 200.250 M 77.750 203.706 C 78.987 203.944, 81.013 203.944, 82.250 203.706 C 83.487 203.467, 82.475 203.272, 80 203.272 C 77.525 203.272, 76.513 203.467, 77.750 203.706 M 216.559 206.532 C 215.491 207.339, 215.099 208, 215.686 208 C 216.274 208, 217.315 207.325, 218 206.500 C 219.557 204.624, 219.067 204.634, 216.559 206.532 M 210.750 209.572 C 207.012 211.600, 207.239 212.445, 211 210.500 C 212.650 209.647, 214 208.735, 214 208.474 C 214 207.831, 213.893 207.867, 210.750 209.572 M 36 233 C 36 233.550, 36.450 234, 37 234 C 37.550 234, 38 233.550, 38 233 C 38 232.450, 37.550 232, 37 232 C 36.450 232, 36 232.450, 36 233 M 176 283 C 176 283.550, 176.450 284, 177 284 C 177.550 284, 178 283.550, 178 283 C 178 282.450, 177.550 282, 177 282 C 176.450 282, 176 282.450, 176 283" stroke="none" fill="#e86368" fill-rule="evenodd"/><path d="M 222.768 61.145 L 151.037 85.154 151.009 187.577 L 150.982 290 153.491 290 C 154.871 290, 156 289.550, 156 289 C 156 288.450, 156.863 288, 157.917 288 C 158.971 288, 159.983 287.662, 160.167 287.250 C 160.584 286.311, 165.910 283.064, 168.250 282.322 C 169.213 282.016, 170 281.369, 170 280.883 C 170 280.398, 170.590 280, 171.311 280 C 172.033 280, 173.513 279.212, 174.600 278.250 C 175.688 277.288, 177.236 276.354, 178.039 276.175 C 178.843 275.996, 179.650 275.434, 179.833 274.925 C 180.017 274.416, 181.029 274, 182.083 274 C 183.138 274, 184 273.656, 184 273.236 C 184 272.816, 185.741 271.718, 187.869 270.796 C 189.997 269.874, 192.359 268.528, 193.119 267.804 C 193.878 267.081, 196.637 265.408, 199.250 264.087 C 201.863 262.766, 204 261.306, 204 260.843 C 204 260.379, 204.863 260, 205.917 260 C 206.971 260, 207.983 259.662, 208.167 259.250 C 208.466 258.576, 213.724 255.556, 219.742 252.601 C 220.975 251.995, 221.988 251.162, 221.992 250.750 C 221.996 250.338, 222.675 250, 223.500 250 C 224.325 250, 225 249.550, 225 249 C 225 248.450, 225.815 248, 226.811 248 C 227.808 248, 229.589 247.100, 230.770 246 C 231.950 244.900, 233.610 244, 234.458 244 C 235.306 244, 236.007 243.662, 236.016 243.250 C 236.024 242.838, 238.274 241.399, 241.016 240.053 C 243.757 238.707, 246 237.245, 246 236.803 C 246 236.361, 246.590 236, 247.311 236 C 248.033 236, 249.589 235.100, 250.770 234 C 251.950 232.900, 253.610 232, 254.458 232 C 255.306 232, 256 231.550, 256 231 C 256 230.450, 256.900 230, 258 230 C 259.100 230, 260 229.634, 260 229.187 C 260 228.739, 261.555 227.763, 263.455 227.018 C 265.355 226.272, 266.712 225.343, 266.471 224.953 C 266.230 224.563, 267.321 223.986, 268.896 223.671 C 270.470 223.356, 272.456 222.401, 273.308 221.549 C 274.160 220.697, 275.339 220, 275.929 220 C 276.518 220, 277 219.550, 277 219 C 277 218.450, 277.675 218, 278.500 218 C 279.325 218, 280 217.550, 280 217 C 280 216.450, 280.900 216, 282 216 C 283.100 216, 284 215.634, 284 215.187 C 284 214.739, 285.555 213.763, 287.455 213.018 C 289.355 212.272, 290.678 211.288, 290.396 210.831 C 290.113 210.374, 290.494 210, 291.242 210 C 291.989 210, 293.815 209.438, 295.298 208.750 L 297.994 207.500 297.747 122.514 C 297.530 47.849, 297.318 37.503, 296 37.331 C 295.175 37.223, 262.221 47.939, 222.768 61.145 M 274 89 C 274 89.550, 273.319 90, 272.486 90 C 271.654 90, 270.191 90.397, 269.236 90.883 C 268.281 91.369, 266.306 92.322, 264.846 93.001 C 263.063 93.830, 262.009 95.265, 261.637 97.368 C 261.333 99.091, 260.582 102.975, 259.970 106 C 259.357 109.025, 258.622 113.862, 258.336 116.750 C 258.049 119.638, 257.407 122, 256.907 122 C 256.408 122, 256 124.448, 256 127.441 C 256 130.434, 255.635 133.107, 255.190 133.383 C 254.744 133.658, 254.268 136.037, 254.132 138.668 C 253.996 141.300, 253.422 143.739, 252.857 144.089 C 252.292 144.438, 251.868 145.011, 251.915 145.362 C 252.315 148.356, 251.813 152, 251 152 C 250.450 152, 250 150.200, 250 148 C 250 145.800, 249.550 144, 249 144 C 248.450 144, 248 142.200, 248 140 C 248 137.800, 247.550 136, 247 136 C 246.450 136, 246 134.227, 246 132.059 C 246 129.891, 245.598 127.869, 245.106 127.565 C 244.614 127.261, 243.975 125.322, 243.687 123.256 C 243.399 121.190, 242.644 117.475, 242.009 115 C 241.375 112.525, 240.614 109.037, 240.318 107.250 C 239.866 104.511, 239.366 104.013, 237.141 104.081 C 235.688 104.126, 232.250 105.364, 229.500 106.831 C 224.828 109.325, 224.480 109.779, 224.193 113.750 C 224.023 116.088, 223.545 118, 223.129 118 C 222.714 118, 222.265 120.138, 222.133 122.750 C 222.001 125.362, 221.467 127.650, 220.946 127.833 C 220.426 128.017, 220 130.379, 220 133.083 C 220 135.787, 219.634 138, 219.187 138 C 218.740 138, 218.265 140.109, 218.131 142.686 C 217.998 145.263, 217.594 147.848, 217.234 148.431 C 216.563 149.515, 215.308 156.164, 214.341 163.750 C 213.917 167.068, 213.382 168, 211.899 168 C 210.355 168, 210 167.264, 210 164.059 C 210 161.891, 209.598 159.869, 209.106 159.565 C 208.266 159.046, 207.886 157.248, 206.398 146.750 C 206.066 144.412, 205.391 142.072, 204.898 141.550 C 204.404 141.027, 204 139.142, 204 137.359 C 204 135.576, 203.550 133.840, 203 133.500 C 202.450 133.160, 202 131.776, 202 130.425 C 202 129.074, 201.440 126.176, 200.757 123.984 C 199.701 120.603, 199.096 120, 196.757 120 C 195.240 120, 194 120.450, 194 121 C 194 121.550, 192.875 122, 191.500 122 C 190.125 122, 189 122.450, 189 123 C 189 123.550, 188.068 124, 186.929 124 C 185.789 124, 184.214 124.643, 183.429 125.429 C 181.800 127.057, 181.493 133.568, 183 134.500 C 183.550 134.840, 184 136.666, 184 138.559 C 184 140.452, 184.450 142, 185 142 C 185.550 142, 186 143.762, 186 145.917 C 186 148.071, 186.430 149.983, 186.956 150.167 C 187.482 150.350, 188.024 152.188, 188.161 154.250 C 188.297 156.313, 188.767 158, 189.204 158 C 189.642 158, 190 159.323, 190 160.941 C 190 162.559, 190.450 164.160, 191 164.500 C 191.550 164.840, 192 166.640, 192 168.500 C 192 170.360, 192.450 172.160, 193 172.500 C 193.550 172.840, 194 174.640, 194 176.500 C 194 178.360, 194.450 180.160, 195 180.500 C 195.550 180.840, 196 182.415, 196 184 C 196 185.585, 196.450 187.160, 197 187.500 C 197.550 187.840, 198 189.891, 198 192.059 C 198 194.227, 198.450 196, 199 196 C 199.550 196, 200 196.981, 200 198.179 C 200 199.377, 200.434 201.740, 200.965 203.429 C 201.496 205.118, 202.167 207.625, 202.456 209 C 203.475 213.840, 204.252 214.179, 209.060 211.873 C 211.502 210.702, 213.650 209.351, 213.833 208.872 C 214.017 208.392, 214.836 208, 215.655 208 C 218.181 208, 220 205.309, 220 201.571 C 220 199.607, 220.407 198, 220.903 198 C 221.400 198, 222.046 195.863, 222.338 193.250 C 222.630 190.637, 223.349 186.025, 223.936 183 C 224.524 179.975, 225.288 175.577, 225.635 173.227 C 225.982 170.877, 226.656 168.713, 227.133 168.418 C 227.610 168.123, 228 166.109, 228 163.941 C 228 161.773, 228.366 160, 228.813 160 C 229.260 160, 229.735 157.863, 229.867 155.250 C 229.999 152.637, 230.536 150.349, 231.060 150.165 C 231.584 149.980, 231.758 149.418, 231.447 148.915 C 231.136 148.412, 231.584 148, 232.441 148 C 233.593 148, 234 149.044, 234 152 C 234 154.200, 234.450 156, 235 156 C 235.550 156, 236 156.981, 236 158.179 C 236 159.377, 236.420 161.740, 236.932 163.429 C 237.833 166.396, 239.230 171.709, 241.028 179 C 244.040 191.220, 244.382 192, 246.718 192 C 247.973 192, 249 191.550, 249 191 C 249 190.450, 249.932 190, 251.071 190 C 252.211 190, 253.822 189.321, 254.652 188.491 C 255.482 187.661, 256.687 187.283, 257.331 187.651 C 257.974 188.019, 258.180 187.966, 257.790 187.534 C 257.399 187.101, 257.737 185.476, 258.540 183.923 C 259.343 182.370, 260 179.502, 260 177.550 C 260 175.597, 260.366 174, 260.813 174 C 261.260 174, 261.735 171.891, 261.869 169.314 C 262.002 166.737, 262.406 164.152, 262.766 163.569 C 263.464 162.440, 264.771 155.401, 265.656 148 C 265.952 145.525, 266.600 143.073, 267.097 142.550 C 267.594 142.028, 268 139.692, 268 137.359 C 268 135.026, 268.450 132.840, 269 132.500 C 269.550 132.160, 270 129.974, 270 127.641 C 270 125.308, 270.409 122.973, 270.908 122.450 C 271.407 121.928, 272.053 119.250, 272.342 116.500 C 272.632 113.750, 273.375 109.025, 273.993 106 C 274.612 102.975, 275.361 98.588, 275.659 96.250 C 275.958 93.912, 276.622 92, 277.136 92 C 277.670 92, 277.612 91.143, 277 90 C 275.880 87.907, 274 87.280, 274 89" stroke="none" fill="#dc1e26" fill-rule="evenodd"/></svg>